<svg width="18" height="19" viewBox="0 0 18 19" fill="none" xmlns="http://www.w3.org/2000/svg">
<g id="whatsapp copy 1" clip-path="url(#clip0_4229_5224)">
<path id="Vector" d="M9.00225 0.368164H8.99775C4.03538 0.368164 0 4.40466 0 9.36816C0 11.3369 0.6345 13.1617 1.71337 14.6433L0.59175 17.9868L4.05113 16.8809C5.47425 17.8237 7.17188 18.3682 9.00225 18.3682C13.9646 18.3682 18 14.3305 18 9.36816C18 4.40579 13.9646 0.368164 9.00225 0.368164Z" fill="#4CAF50"/>
<path id="Vector_2" d="M14.2391 13.0771C14.022 13.6903 13.1602 14.1988 12.4729 14.3472C12.0026 14.4474 11.3884 14.5273 9.32062 13.67C6.67575 12.5743 4.9725 9.88662 4.83975 9.71225C4.71262 9.53787 3.771 8.28913 3.771 6.99763C3.771 5.70613 4.42687 5.07725 4.69125 4.80725C4.90837 4.58563 5.26725 4.48438 5.6115 4.48438C5.72287 4.48438 5.823 4.49 5.913 4.4945C6.17737 4.50575 6.31012 4.5215 6.4845 4.93888C6.70162 5.462 7.23037 6.7535 7.29337 6.88625C7.3575 7.019 7.42162 7.199 7.33162 7.37338C7.24725 7.55338 7.173 7.63325 7.04025 7.78625C6.9075 7.93925 6.7815 8.05625 6.64875 8.2205C6.52725 8.36338 6.39 8.51638 6.543 8.78075C6.696 9.0395 7.22475 9.90237 8.00325 10.5954C9.00787 11.4897 9.82237 11.7755 10.1137 11.897C10.3309 11.987 10.5896 11.9656 10.7482 11.7969C10.9496 11.5798 11.1982 11.2198 11.4514 10.8654C11.6314 10.6111 11.8586 10.5796 12.0971 10.6696C12.3401 10.754 13.626 11.3896 13.8904 11.5212C14.1547 11.654 14.3291 11.717 14.3932 11.8284C14.4562 11.9398 14.4562 12.4629 14.2391 13.0771Z" fill="#FAFAFA"/>
</g>
<defs>
<clipPath id="clip0_4229_5224">
<rect width="18" height="18" fill="white" transform="translate(0 0.368164)"/>
</clipPath>
</defs>
</svg>
