<svg width="16" height="17" viewBox="0 0 16 17" fill="none" xmlns="http://www.w3.org/2000/svg">
<path id="Vector" d="M11.5771 10.9244C11.7856 11.133 11.7856 11.47 11.5771 11.6786C11.4731 11.7826 11.3365 11.8348 11.2 11.8348C11.0635 11.8348 10.9269 11.7826 10.8229 11.6786L7.62293 8.47857C7.52267 8.3783 7.46667 8.24283 7.46667 8.1015V3.3015C7.46667 3.0071 7.70507 2.76816 8 2.76816C8.29493 2.76816 8.53333 3.0071 8.53333 3.3015V7.8807L11.5771 10.9244ZM16 8.36816C16 12.7794 12.4112 16.3682 8 16.3682C3.5888 16.3682 0 12.7794 0 8.36816C0 3.95696 3.5888 0.368164 8 0.368164C12.4112 0.368164 16 3.95696 16 8.36816ZM14.9333 8.36816C14.9333 4.54523 11.8229 1.43483 8 1.43483C4.17707 1.43483 1.06667 4.54523 1.06667 8.36816C1.06667 12.1911 4.17707 15.3015 8 15.3015C11.8229 15.3015 14.9333 12.1911 14.9333 8.36816Z" fill="#595959"/>
</svg>
