<svg width="16" height="18" viewBox="0 0 16 18" fill="none" xmlns="http://www.w3.org/2000/svg">
<path d="M15.3477 15.1899C14.6156 14.5443 14.1203 13.7089 13.9481 12.8165C13.9481 12.7975 13.9481 12.7785 13.9481 12.7595L13.0007 7.23418C12.9361 6.93038 12.9146 6.66456 12.8715 6.39873C12.7423 4.1962 10.7829 2.43038 8.32826 2.18354V0.531646C8.32826 0.246835 8.06988 0 7.72537 0C7.38086 0 7.16554 0.246835 7.16554 0.531646V2.20253C4.7755 2.46835 2.88069 4.21519 2.7515 6.41772C2.7515 6.6076 2.70843 6.83544 2.66537 7.0443L1.69644 12.5316L1.61031 13.0063C1.39499 13.8608 0.942818 14.6203 0.253797 15.1899C0.0169459 15.3987 -0.0691816 15.7215 0.0600098 16.0063C0.189201 16.2722 0.490648 16.462 0.835159 16.462H6.67031C6.67031 16.519 6.64877 16.557 6.64877 16.6139L6.62724 17.0316C6.60571 17.5633 7.07941 18 7.66077 18C7.68231 18 7.68231 18 7.70384 18C8.2852 18 8.7589 17.6013 8.78043 17.0886L8.80197 16.6709C8.80197 16.5949 8.80197 16.538 8.78043 16.462H14.7448C15.0893 16.462 15.3907 16.2911 15.5199 16.0063C15.6706 15.7215 15.606 15.3987 15.3477 15.1899ZM1.63184 15.4177C2.19167 14.7911 2.60078 14.0316 2.79456 13.2152C2.83763 13.0823 2.85916 12.9494 2.85916 12.8165C2.85916 12.7785 2.88069 12.7215 2.88069 12.6646L3.80656 7.36709L3.82809 7.17722C3.87116 6.94937 3.89269 6.70253 3.91422 6.4557C4.02188 4.67089 5.65831 3.26582 7.66077 3.20886C7.68231 3.20886 7.70384 3.20886 7.7469 3.20886C7.78997 3.20886 7.8115 3.20886 7.85456 3.18987C9.90009 3.22785 11.5796 4.63291 11.6872 6.4557C11.7088 6.75949 11.7518 7.06329 11.8164 7.36709L12.7638 12.8544C12.7638 12.8734 12.7638 12.9114 12.7854 12.9304V12.9684C12.9576 13.8608 13.3667 14.6962 13.9912 15.4177H1.63184V15.4177Z" fill="#D8D8D8"/>
</svg>
