<svg width="16" height="16" viewBox="0 0 16 16" fill="none" xmlns="http://www.w3.org/2000/svg">
<g id="Group">
<path id="Vector 2186 (Stroke)" fill-rule="evenodd" clip-rule="evenodd" d="M0 2.69388C0 1.20744 1.20517 0 2.69482 0H5.0495C5.80021 0 6.4531 0.510902 6.63459 1.237L7.2564 3.72468C7.46297 4.5511 6.99888 5.39884 6.18836 5.66906L5.01207 6.06123C4.67274 6.17436 4.46906 6.52346 4.53971 6.87676C5.00259 9.19158 6.81135 10.9998 9.12385 11.4624C9.47402 11.5325 9.82306 11.331 9.9368 10.9897L10.2527 10.0417C10.5667 9.09983 11.6435 8.65224 12.534 9.09759L15.0974 10.3795C15.6511 10.6564 16 11.2219 16 11.8395V13.3061C16 14.7926 14.7948 16 13.3052 16H11.1831C5.0055 16 0 10.9916 0 4.81633V2.69388ZM2.69482 1.14286C1.84051 1.14286 1.14551 1.83593 1.14551 2.69388V4.81633C1.14551 10.3631 5.64084 14.8571 11.1831 14.8571H13.3052C14.1595 14.8571 14.8545 14.1641 14.8545 13.3061V11.8395C14.8545 11.6533 14.7493 11.4838 14.5841 11.4012L12.0207 10.1193C11.7562 9.987 11.4342 10.1189 11.3397 10.4023L11.0238 11.3503C10.7282 12.2372 9.81769 12.7668 8.89866 12.583C6.13136 12.0294 3.96942 9.86625 3.41634 7.10036C3.23315 6.18424 3.76044 5.27354 4.64901 4.97729L5.82531 4.58512C6.06675 4.50463 6.20729 4.25072 6.14493 4.00121L5.52312 1.51353C5.46844 1.29479 5.27254 1.14286 5.0495 1.14286H2.69482Z" fill="#D8D8D8"/>
</g>
</svg>
